<svg xmlns="http://www.w3.org/2000/svg" xmlns:xlink="http://www.w3.org/1999/xlink" viewBox="219.909 263.405 423.091 113.481" width="419.09" height="109.48"><defs><path d="M262.39 293.88c-1.49 4.07-4.17 7.6-7.68 10.14a20.11 20.11 0 0 1-11.99 3.72c-8.78.09-16.74-5.16-20.13-13.26a22.03 22.03 0 0 1-1.68-8.59c-.13-5.76 2.15-11.3 6.29-15.31a22.184 22.184 0 0 1 27.73-2.4c3.56 2.52 6.2 6.15 7.48 10.32h-9.16a11.8 11.8 0 0 0-10.79-6.38c-3.56-.08-6.98 1.4-9.36 4.05-2.44 2.6-3.78 6.04-3.74 9.6-.05 2.72.66 5.4 2.04 7.75a13.26 13.26 0 0 0 5.75 5.27c1.66.82 3.48 1.24 5.33 1.23 4.43.18 8.56-2.21 10.6-6.14h9.31z" id="a"/><path d="M300.7 306.93l-3.24-9.05h-15.47l-3.36 9.05h-8.92l16.53-41.74h7.19l16.46 41.74h-9.19zm-5.8-16.12l-5.16-15.36-5.28 15.36h10.44z" id="b"/><path d="M334.66 265.18l.34.03.35.03.34.03.34.05.34.05.34.06.34.06.34.07.33.08.34.09.33.09.33.1.32.11.33.11.32.13.32.12.32.14.31.14.31.15.31.15.3.17.31.16.3.18.29.18.29.19.29.19.28.2.28.21.28.21.25.24.25.25.24.25.23.25.22.27.22.26.21.27.2.28.2.28.18.29.18.29.17.29.17.3.15.31.15.3.14.31.13.32.12.31.12.32.11.33.09.32.09.33.09.33.07.34.06.33.06.34.05.34.03.34.03.34.02.35.01.34.01.35-.01.35-.02.34.01.28-.01.28-.01.28-.02.27-.02.28-.03.27-.03.28-.04.27-.04.27-.06.27-.05.27-.07.27-.07.27-.07.26-.08.26-.09.26-.09.26-.09.26-.11.25-.1.25-.12.25-.12.25-.12.25-.13.24-.13.24-.14.24-.15.23-.15.23-.15.23-.17.23-.16.22-.17.22-.18.21-.18.21-.18.21-.18.21-.19.19-.2.2-.19.18-.2.19-.21.18-.21.17-.21.17-.22.16-.22.16-.22.15-.23.15-.23.14-.23.13-.24.13-.24.13-.24.12-.24.11-.25.11-.25.1-.25.1-.26.09-.25.09-.26.08-.26.07-.27.07-.26.06-.27.05-.26.05-.27.04-.28.04-.27.03-.27.02 11.58 15.14-9.83-.02-11.71-16.99v16.99h-8.23v-41.74h14.16l.35-.02.35-.01h.34l.35.01.35.01zm-7.67 7.47v12.97h4.18l.72.03h.71l.72-.05.71-.08.71-.12.69-.15.7-.19.68-.23.67-.26.56-.4.51-.46.44-.52.37-.57.29-.6.22-.64.13-.67.05-.68-.03-.69.02-.7-.08-.7-.15-.67-.24-.65-.31-.62-.39-.58-.46-.54-.52-.47-.58-.42-.64-.31-.65-.28-.67-.23-.68-.19-.69-.15-.69-.11-.71-.07-.7-.02-.71.02h-4.18z" id="c"/><path d="M427 265.19v41.74h-8.06v-23.3c0-1.39.15-3.78.17-4.2.11-1.87.17-3.27.17-4.19l-11.13 31.71h-5.69l-11.13-31.71c0 1.39.15 3.77.17 4.19.11 1.88.17 3.28.17 4.2v23.32h-8.06v-41.76h11.61l10.19 30.27 10.2-30.27H427z" id="d"/><path d="M467.09 306.93l-3.31-9.05H448.3l-3.35 9.05h-8.93l16.53-41.74h7.2l16.45 41.74h-9.11zm-5.81-16.12l-5.15-15.36-5.28 15.36h10.43z" id="e"/><path d="M501.07 265.18l.34.03.35.03.34.03.34.05.35.05.34.06.33.06.34.07.34.08.33.09.33.09.33.1.32.11.33.11.32.13.32.12.32.14.31.14.31.15.31.15.31.17.3.16.3.18.29.18.29.19.29.19.29.2.28.21.27.21.25.24.25.25.24.25.23.26.22.26.22.26.21.28.2.27.19.29.19.28.17.29.18.3.16.3.15.3.15.31.14.31.13.31.12.32.12.32.1.32.1.33.09.33.08.33.07.33.07.33.05.34.05.34.03.34.03.34.02.35.01.34v.7l-.02.34v.56l-.01.28-.02.27-.02.28-.03.27-.03.28-.04.27-.05.27-.05.27-.06.27-.06.27-.07.27-.07.26-.08.26-.09.26-.09.26-.1.26-.1.25-.11.25-.11.25-.12.25-.12.25-.13.24-.14.24-.14.24-.14.23-.15.23-.16.23-.16.23-.16.22-.18.22-.17.21-.18.21-.18.21-.19.2-.19.2-.19.2-.2.18-.2.19-.2.17-.21.18-.22.16-.21.17-.22.15-.23.16-.22.14-.23.15-.23.13-.24.13-.24.13-.24.12-.25.11-.24.11-.25.1-.26.1-.25.09-.26.08-.26.08-.26.08-.26.06-.26.07-.27.05-.27.05-.27.04-.27.04-.27.03-.27.02 11.58 15.14-9.81-.02-11.71-16.99v16.99h-8.22v-41.74h14.15l.35-.02.35-.01h.34l.35.01.35.01zm-7.62 7.47v12.97h4.18l.71.03h.72l.72-.05.71-.08.7-.12.7-.15.69-.19.69-.23.66-.26.57-.4.51-.46.44-.52.36-.57.3-.6.22-.64.13-.67.05-.68-.03-.69v-.7l-.07-.69-.16-.68-.24-.65-.31-.62-.39-.58-.45-.53-.51-.48-.58-.42-.64-.31-.65-.28-.67-.23-.68-.19-.69-.15-.69-.11-.71-.07-.7-.02-.71.02h-4.18z" id="f"/><path d="M542.89 285.94l15.48 20.99h-10.03l-13.39-19.53v19.53h-8.37v-41.74h8.37v19.71l13.96-19.71h9.26l-15.28 20.75z" id="g"/><path d="M567.84 306.93v-41.74h22.45v7.41h-14.1v9.45h13.94v7.48h-13.94v9.79h14.1v7.61h-22.45z" id="h"/><path d="M616.71 272.67v34.26h-8.4v-34.26h-8.25v-7.48h24.87v7.48h-8.22z" id="i"/><path d="M632.3 306.93v-8.35h7.7v8.35h-7.7z" id="j"/><path d="M222.69 373.66v-41.74h22.43v7.42h-14.08v9.45h13.91v7.48h-13.91v9.79h14.08v7.6h-22.43z" id="k"/><path d="M283.07 373.66l-9.62-15.54-9.5 15.54h-9.45l14.25-21.68-13.22-20.06h9.57l8.57 14.04 8.37-14.04h9.62l-13.17 20.18 14.15 21.56h-9.57z" id="l"/><path d="M318.45 332.11l1.51.25 1.36.34 1.23.41 1.1.49.98.54.87.6.76.64.67.68.58.71.5.72.43.73.36.74.31.73.26.71.22.7.18.66.16.61.14.58.14.51.13.45.14.37.15.3.18.2.03.48.01.48-.01.48-.02.48-.04.47-.06.47-.07.47-.09.46-.11.46-.12.45-.14.45-.16.45-.17.44-.19.43-.2.42-.22.42-.23.41-.25.4-.26.4-.28.38-.29.38-.3.36-.32.36-.34.34-.35.34-.37.27-.37.26-.39.25-.39.24-.39.23-.4.21-.41.21-.41.19-.42.18-.42.17-.43.15-.43.15-.43.13-.44.12-.44.11-.44.09-.45.08-.45.07-.45.06-.45.04-.46.03-.46.02h-.91l-.46-.03h-5.23v14.97h-8.33V331.9h12.57l1.82.05 1.66.16zm-3.4 19.22l.71.03.71-.02.7-.07.7-.11.7-.15.68-.2.66-.25.65-.29.89-.93.65-1.07.43-1.15.2-1.2-.03-1.22-.26-1.2-.51-1.14-.74-1.05-.07-.09-.08-.08-.07-.08-.08-.08-.08-.08-.08-.07-.08-.08-.09-.07-.61-.32-.64-.27-.65-.23-.67-.17-.68-.13-.68-.09-.7-.03-.69.02-4.49-.12v11.99h4.3z" id="m"/><path d="M341.29 373.66v-41.74h22.45v7.42h-14.1v9.45h13.91v7.48h-13.91v9.79h14.1v7.6h-22.45z" id="n"/><path d="M392.52 331.9l.34.02.35.03.34.04.35.04.34.05.34.06.33.06.34.08.34.08.33.08.33.1.33.1.33.1.32.12.32.12.32.13.32.13.31.14.31.15.31.16.31.16.3.17.3.17.29.18.29.19.29.2.29.2.28.2.27.22.25.24.25.24.24.25.23.26.22.26.22.26.21.27.2.28.19.28.19.29.18.29.17.29.16.3.16.3.15.31.14.31.13.31.12.32.11.32.11.32.1.32.09.33.08.33.08.33.06.34.06.34.04.33.04.34.03.35.02.34.01.34.01.35-.01.35-.02.34.01.28-.01.28-.01.28-.01.27-.03.28-.02.27-.04.28-.04.27-.04.27-.06.27-.05.27-.07.27-.06.26-.08.27-.08.26-.08.26-.1.26-.09.26-.1.25-.11.25-.12.25-.11.25-.13.25-.13.24-.13.24-.14.24-.15.23-.15.23-.15.23-.16.23-.17.22-.17.22-.18.21-.18.21-.18.21-.18.2-.19.2-.2.19-.19.19-.2.19-.21.17-.21.18-.21.16-.22.17-.22.15-.22.16-.23.14-.23.14-.23.14-.24.13-.24.13-.24.12-.24.11-.25.11-.25.1-.25.1-.26.09-.25.08-.26.08-.26.08-.26.06-.27.06-.27.06-.26.05-.27.04-.27.04-.28.03-.27.02 11.59 15.14-9.86.02-11.71-16.98v16.98h-8.2V331.9h14.15l.35-.02h1.04l.35.02zm-7.69 7.48v12.98H389l.72.03.72-.01.72-.04.71-.08.7-.12.7-.15.69-.19.68-.23.67-.26.57-.4.51-.47.43-.51.37-.57.3-.6.21-.64.14-.67.05-.68-.03-.69.01-.71-.07-.69-.15-.68-.24-.65-.31-.62-.39-.58-.46-.53-.52-.48-.58-.41-.64-.32-.65-.27-.67-.23-.68-.19-.69-.16-.7-.1-.7-.07-.71-.03-.71.02h-4.17z" id="o"/><path d="M430.36 339.41v34.25h-8.4v-34.25h-8.22v-7.49h24.87v7.49h-8.25z" id="p"/><path d="M461.44 332.13l1.02.59.9.76.77.89.61 1.03.43 1.13.22 1.23.01.15.01.15.01.14V338.65l-.01.15-.01.15-.02.15.02.71-.05.7-.11.7-.17.68-.24.66-.29.64-.35.61-.41.58-.46.54-.56.46-.6.4-.63.34-.66.29-.67.23-.7.16-.71.11-.72.05-.72-.02h-4.27v-15.43h6.04l1.2.21 1.12.41zm-6.61.9v12.3h2.18l.75.01.73-.07.73-.15.69-.23.67-.31.64-.38.59-.45.46-.57.39-.61.32-.64.23-.68.16-.71.08-.71-.01-.73.03-.71-.05-.7-.14-.68-.22-.66-.29-.63-.36-.6-.43-.56-.55-.44-.59-.36-.62-.3-.66-.23-.67-.14-.7-.07-.7.01h-2.66z" id="q"/><path d="M478.05 346.94l-1.92-4.8h-6.19l-1.89 4.8h-1.83l6.1-15.47h1.51l6.07 15.47h-1.85zm-5.22-12.43l-.18.56-.19.55-1.82 4.79h5.01l-1.8-4.79-.25-.71-.21-.67-.16-.54-.1-.31-.14.56-.16.56z" id="r"/><path d="M485.25 346.94h-1.8v-13.82h-4.8v-1.58h11.56v1.58h-4.79l-.17 13.82z" id="s"/><path d="M500.62 346.94l-1.91-4.8h-6.19l-1.9 4.8h-1.82l6.09-15.47h1.51l6.07 15.47h-1.85zm-5.22-12.43l-.17.56-.19.55-1.83 4.79h5.02l-1.8-4.79-.26-.71-.21-.67-.16-.54-.09-.31-.15.56-.16.56z" id="t"/><path d="M511.42 346.94l-5.25-13.67c.09 1.08.14 2.37.14 3.86v9.81h-1.66v-15.43h2.72l4.79 12.72 4.92-12.72h2.69v15.41h-1.61v-9.91c0-1.14.05-2.38.14-3.72l-5.27 13.65h-1.61z" id="u"/><path d="M524.11 346.94v-15.43h1.8v15.41l-1.8.02z" id="v"/><path d="M542.15 346.94h-2.04l-8.42-12.93c.11 1.52.17 2.91.17 4.17v8.76h-1.71v-15.43h2.02l8.4 12.89v-1.83V331.51h1.68l-.1 15.43z" id="w"/><path d="M546.4 346.94v-15.43h1.79v15.41l-1.79.02z" id="x"/><path d="M564.46 346.94h-2.04L554 334.01c.11 1.52.17 2.91.17 4.17v8.76h-1.66v-15.43h2.02l8.39 12.89v-1.83-2.2-8.86h1.68l-.14 15.43z" id="y"/><path d="M575.47 338.86h5.23v7.43c-.78.26-1.59.46-2.4.6-.97.14-1.95.21-2.93.19-2.02.11-4-.65-5.44-2.08a8.165 8.165 0 0 1-1.94-5.83c-.04-1.47.29-2.92.95-4.22a6.52 6.52 0 0 1 2.79-2.76c1.31-.67 2.77-1 4.24-.96 1.58-.02 3.15.29 4.61.91l-.7 1.58c-1.26-.56-2.62-.86-4-.89-1.64-.09-3.23.52-4.39 1.68a6.52 6.52 0 0 0-1.59 4.66c-.13 1.74.42 3.46 1.54 4.79a5.83 5.83 0 0 0 4.49 1.61c1.05.01 2.11-.11 3.14-.36v-4.8h-3.46l-.14-1.55z" id="z"/><path d="M459.32 358.51l.93.27.78.39.65.49.5.61.35.72.22.82.07.94-.13.58-.13.54-.15.49-.17.45-.18.4-.19.35-.21.31-.22.26-.23.22-.45.28-.48.26-.49.21-.5.18-.51.14-.52.1-.53.07-.54.02-.54-.02h-1.82v6.07h-1.8v-15.37h4.01l1.21.05 1.07.17zm-4.49 7.55H457.34l.88-.12.86-.26.81-.39.48-.49.34-.58.2-.64.04-.69-.04-.65-.18-.61-.33-.55-.46-.47-.73-.36-.77-.25-.8-.13h-2.81v6.19z" id="A"/><path d="M466.06 373.66v-15.37h1.72v13.79h6.79v1.63l-8.51-.05z" id="B"/><path d="M486.97 373.66l-1.91-4.79h-6.19l-1.9 4.79h-1.82l6.07-15.37h1.51l6.07 15.47-1.83-.1zm-5.22-12.43l-.17.56-.19.55-1.83 4.8h5.02l-1.8-4.8-.26-.7-.21-.67-.16-.55-.09-.31-.15.56-.16.56z" id="C"/><path d="M494.17 373.66h-1.8v-13.81h-4.8v-1.56h11.4v1.58h-4.8v13.79z" id="D"/><path d="M503.14 373.66h-1.77v-15.37h8.59v1.58h-6.79v5.61h6.38v1.59h-6.38l-.03 6.59z" id="E"/><path d="M519.46 358.02l.64.06.63.12.61.19.59.24.56.29.54.35.5.41.46.45.42.56.36.59.32.62.26.64.22.65.15.67.11.69.04.69-.01.7.01.7-.04.7-.1.68-.16.68-.21.66-.27.64-.31.61-.37.59-.42.57-.47.46-.5.4-.54.35-.56.3-.6.24-.61.18-.63.12-.64.06h-.66l-.65.01-.65-.06-.63-.12-.62-.18-.6-.24-.57-.29-.55-.35-.51-.4-.47-.46-.42-.57-.36-.6-.32-.62-.26-.64-.21-.67-.15-.68-.1-.69-.04-.7.01-.71-.01-.7.04-.69.1-.69.15-.67.21-.66.26-.64.32-.62.36-.59.42-.56.48-.46.51-.4.55-.34.57-.3.6-.23.63-.18.63-.11.65-.06.66.01h.65zm-1.28 1.64l-.62.08-.59.16-.57.24-.54.3-.49.38-.45.44-.38.6-.32.63-.26.66-.19.68-.13.69-.05.71.01.71-.03.73.05.72.12.72.19.69.26.68.33.64.4.62.98.78 1.1.53 1.17.27 1.19.01 1.17-.26 1.1-.51.99-.78h.01l.01-.01v-.01h.01l.01-.01v-.01h.01l.64-1.29.43-1.36.21-1.39v-1.4l-.21-1.39-.43-1.36-.64-1.29-.44-.45-.49-.37-.53-.31-.57-.24-.59-.16-.62-.08h-.62l-.63.01z" id="F"/><path d="M534.62 358.29l.36.04.37.06.35.08.35.11.35.12.34.13.33.16.33.18.31.2.23.21.2.22.19.24.17.26.14.26.13.28.1.28.09.29.06.3.03.3.02.31-.02.31-.01.48-.06.46-.12.45-.16.43-.21.41-.25.38-.3.35-.33.31-.37.28-.39.24-.43.19-.46.14 4.17 6.94h-2.11l-3.74-6.41-3.19-.02v6.4h-1.8v-15.37h4.22l.37-.02h.37l.37.02zm-3.67 1.56l.14 5.87H534.23l.72-.13.68-.24.64-.37.41-.48.29-.55.16-.6.03-.63-.02-.62-.16-.59-.31-.54-.42-.45-.68-.34-.72-.23-.75-.11-.75.01h-2.4z" id="G"/><path d="M549.47 373.66l-5.23-13.67c.09 1.09.14 2.37.14 3.86v9.81h-1.66v-15.37h2.72l4.79 12.71 4.92-12.71h2.69v15.4h-1.8v-9.96c0-1.13.05-2.37.14-3.72l-5.27 13.65h-1.44z" id="H"/></defs><use xlink:href="#a" fill="#fff"/><use xlink:href="#a" fill-opacity="0" stroke="#000" stroke-opacity="0"/><use xlink:href="#b" fill="#fff"/><use xlink:href="#b" fill-opacity="0" stroke="#000" stroke-opacity="0"/><use xlink:href="#c" fill="#fff"/><use xlink:href="#c" fill-opacity="0" stroke="#000" stroke-opacity="0"/><use xlink:href="#d" fill="#fff"/><use xlink:href="#d" fill-opacity="0" stroke="#000" stroke-opacity="0"/><use xlink:href="#e" fill="#fff"/><use xlink:href="#e" fill-opacity="0" stroke="#000" stroke-opacity="0"/><use xlink:href="#f" fill="#fff"/><use xlink:href="#f" fill-opacity="0" stroke="#000" stroke-opacity="0"/><use xlink:href="#g" fill="#fff"/><use xlink:href="#g" fill-opacity="0" stroke="#000" stroke-opacity="0"/><use xlink:href="#h" fill="#fff"/><use xlink:href="#h" fill-opacity="0" stroke="#000" stroke-opacity="0"/><use xlink:href="#i" fill="#fff"/><use xlink:href="#i" fill-opacity="0" stroke="#000" stroke-opacity="0"/><use xlink:href="#j" fill="#fff"/><use xlink:href="#j" fill-opacity="0" stroke="#000" stroke-opacity="0"/><use xlink:href="#k" fill="#569dd7"/><use xlink:href="#k" fill-opacity="0" stroke="#000" stroke-opacity="0"/><use xlink:href="#l" fill="#569dd7"/><use xlink:href="#l" fill-opacity="0" stroke="#000" stroke-opacity="0"/><use xlink:href="#m" fill="#569dd7"/><use xlink:href="#m" fill-opacity="0" stroke="#000" stroke-opacity="0"/><use xlink:href="#n" fill="#569dd7"/><use xlink:href="#n" fill-opacity="0" stroke="#000" stroke-opacity="0"/><use xlink:href="#o" fill="#569dd7"/><use xlink:href="#o" fill-opacity="0" stroke="#000" stroke-opacity="0"/><use xlink:href="#p" fill="#569dd7"/><use xlink:href="#p" fill-opacity="0" stroke="#000" stroke-opacity="0"/><use xlink:href="#q" fill="#fff"/><use xlink:href="#q" fill-opacity="0" stroke="#000" stroke-opacity="0"/><g><use xlink:href="#r" fill="#fff"/><use xlink:href="#r" fill-opacity="0" stroke="#000" stroke-opacity="0"/></g><g><use xlink:href="#s" fill="#fff"/><use xlink:href="#s" fill-opacity="0" stroke="#000" stroke-opacity="0"/></g><g><use xlink:href="#t" fill="#fff"/><use xlink:href="#t" fill-opacity="0" stroke="#000" stroke-opacity="0"/></g><g><use xlink:href="#u" fill="#fff"/><use xlink:href="#u" fill-opacity="0" stroke="#000" stroke-opacity="0"/></g><g><use xlink:href="#v" fill="#fff"/><use xlink:href="#v" fill-opacity="0" stroke="#000" stroke-opacity="0"/></g><g><use xlink:href="#w" fill="#fff"/><use xlink:href="#w" fill-opacity="0" stroke="#000" stroke-opacity="0"/></g><g><use xlink:href="#x" fill="#fff"/><use xlink:href="#x" fill-opacity="0" stroke="#000" stroke-opacity="0"/></g><g><use xlink:href="#y" fill="#fff"/><use xlink:href="#y" fill-opacity="0" stroke="#000" stroke-opacity="0"/></g><g><use xlink:href="#z" fill="#fff"/><use xlink:href="#z" fill-opacity="0" stroke="#000" stroke-opacity="0"/></g><g><use xlink:href="#A" fill="#fff"/><use xlink:href="#A" fill-opacity="0" stroke="#000" stroke-opacity="0"/></g><g><use xlink:href="#B" fill="#fff"/><use xlink:href="#B" fill-opacity="0" stroke="#000" stroke-opacity="0"/></g><g><use xlink:href="#C" fill="#fff"/><use xlink:href="#C" fill-opacity="0" stroke="#000" stroke-opacity="0"/></g><g><use xlink:href="#D" fill="#fff"/><use xlink:href="#D" fill-opacity="0" stroke="#000" stroke-opacity="0"/></g><g><use xlink:href="#E" fill="#fff"/><use xlink:href="#E" fill-opacity="0" stroke="#000" stroke-opacity="0"/></g><g><use xlink:href="#F" fill="#fff"/><use xlink:href="#F" fill-opacity="0" stroke="#000" stroke-opacity="0"/></g><g><use xlink:href="#G" fill="#fff"/><use xlink:href="#G" fill-opacity="0" stroke="#000" stroke-opacity="0"/></g><g><use xlink:href="#H" fill="#fff"/><use xlink:href="#H" fill-opacity="0" stroke="#000" stroke-opacity="0"/></g></svg>