<svg xmlns="http://www.w3.org/2000/svg" xmlns:xlink="http://www.w3.org/1999/xlink" viewBox="0 0 130 44"><g opacity=".9"><defs><path id="a" d="M1 .302h128v43.324H1z"/></defs><clipPath id="b"><use xlink:href="#a" overflow="visible"/></clipPath><path clip-path="url(#b)" fill-rule="evenodd" clip-rule="evenodd" fill="#CAB894" d="M56.188 38.526c.746-.262 1.326-.68 1.679-1.376.078-.154.15-.311.225-.467a.586.586 0 0 1 .584-.357c.206.004.411-.001.617.001.295.003.361.1.234.368-.269.566-.544 1.129-.816 1.693l-1.3 2.696a1.977 1.977 0 0 0-.16.429c-.042.192-.038.376.116.516.163.146.361.159.56.092.309-.103.564-.302.805-.513.834-.724 1.559-1.534 2.021-2.557.348-.769.736-1.52 1.09-2.286.145-.316.364-.46.707-.439.187.011.373 0 .559.003.276.005.34.096.218.346-.236.483-.484.96-.728 1.439-.501.986-1.004 1.972-1.504 2.959-.092.182-.179.368-.182.581-.004.347.214.549.562.516.27-.025.476-.179.672-.345.678-.569 1.208-1.272 1.757-1.957.236-.296.375-.638.534-.972.275-.577.546-1.156.826-1.731.068-.139.038-.173-.11-.167-.159.008-.32.005-.479-.011-.202-.021-.273-.16-.178-.34.104-.198.281-.291.497-.315.044-.005.092-.011.135-.002.428.095.63-.107.782-.496.212-.54.5-1.049.742-1.579.123-.269.309-.414.609-.407.237.005.475-.003.712.008.224.011.278.09.184.296-.192.426-.398.845-.598 1.266l-.431.91h1.075c.305.001.418.058.429.216.012.184-.191.406-.416.436-.307.043-.62.049-.922.013-.388-.049-.563.108-.718.452-.56 1.241-1.159 2.464-1.741 3.696a1.67 1.67 0 0 0-.142.417c-.08.436.233.714.658.569.335-.114.597-.347.851-.582a14.355 14.355 0 0 0 1.715-1.921.912.912 0 0 1 .169-.181c.071-.058.156-.093.248-.035.095.059.116.149.096.252a.665.665 0 0 1-.119.259c-.788 1.072-1.627 2.099-2.681 2.928-.338.267-.702.491-1.122.613-.567.163-1.15-.058-1.36-.538-.148-.335-.137-.685-.06-1.036.009-.043.02-.085.05-.101-.261.24-.521.481-.783.719-.423.387-.858.76-1.419.928-.438.133-.873.126-1.21-.238-.288-.311-.269-.703-.213-1.091.019-.131.061-.259.102-.42-.197.206-.37.395-.551.577-.489.488-1.021.915-1.689 1.139a2.069 2.069 0 0 1-.681.102c-.654-.005-1.073-.427-1.092-1.084-.012-.423.117-.805.296-1.177l1.029-2.144c.026-.055.049-.112.091-.209-.379.199-.725.358-1.093.461-.103.028-.119.129-.157.206-.579 1.153-1.336 2.17-2.325 3.005-.528.445-1.109.807-1.789.97-.61.147-1.219.156-1.791-.157-.383-.209-.565-.564-.645-.974a3.814 3.814 0 0 1-.014-1.225l-.041-.041c-.085.101-.162.21-.255.302-.729.733-1.542 1.349-2.495 1.766-.565.247-1.151.393-1.772.327-.945-.103-1.623-.769-1.704-1.731-.061-.717.161-1.37.485-1.987.67-1.277 1.617-2.305 2.863-3.04.656-.387 1.36-.63 2.138-.556.499.047.956.202 1.274.617a.864.864 0 0 1 .091.959.801.801 0 0 1-.777.47c-.263-.005-.389-.14-.376-.4.008-.153.037-.305.05-.459.027-.328-.129-.5-.453-.537-.527-.059-.973.145-1.375.438-1.04.757-1.781 1.74-2.183 2.968a2.486 2.486 0 0 0-.117.679c-.024.787.453 1.25 1.243 1.209.793-.041 1.482-.373 2.13-.799.68-.447 1.271-1 1.764-1.648.204-.268.354-.577.561-.847.626-.815 1.366-1.502 2.331-1.888.368-.146.716-.287 1.052-.513.719-.483 1.788-.32 2.299.296.362.434.42.947.317 1.487-.016.079-.038.16-.067.281m-3.261-1.032c-.063.044-.1.069-.134.096-.738.571-1.294 1.29-1.704 2.122-.251.508-.42 1.046-.405 1.621.016.624.366.936.986.891.387-.028.73-.182 1.043-.399.818-.568 1.371-1.347 1.792-2.235.071-.15.061-.191-.108-.231-.585-.137-1.062-.429-1.317-1.007-.116-.262-.13-.543-.153-.858m2.031.422c.002-.304-.043-.533-.197-.728-.125-.158-.326-.225-.476-.159-.175.078-.227.231-.228.409-.004.426.304.872.703 1.037.11.045.134-.004.144-.086.024-.178.041-.356.054-.473"/><path clip-path="url(#b)" fill-rule="evenodd" clip-rule="evenodd" fill="#CAB894" d="M70.839 41.664c-.398.453-.782.859-1.235 1.19-.499.364-1.028.647-1.671.645-.674-.001-1.1-.43-1.109-1.104-.006-.389.1-.746.264-1.089.735-1.527 1.471-3.053 2.202-4.582.136-.282.344-.414.656-.399.192.01.386 0 .578.002.283.004.346.1.226.36-.141.308-.293.612-.44.917-.565 1.169-1.13 2.338-1.693 3.508-.06.125-.113.254-.143.394-.044.2-.042.389.123.53.165.14.362.151.562.08.339-.121.609-.35.878-.577a7.948 7.948 0 0 0 2.196-3.019c.247-.581.552-1.137.81-1.715.153-.342.383-.51.762-.48.192.014.385-.004.578.005.21.009.263.09.191.285-.036.096-.083.187-.13.278-.704 1.385-1.41 2.77-2.113 4.156-.058.113-.114.23-.151.351-.069.23-.097.47.102.646.197.173.436.154.668.055.161-.068.299-.174.43-.287.715-.606 1.279-1.348 1.846-2.085.62-.804 1.114-1.687 1.573-2.589.034-.068.104-.134-.036-.191-.369-.151-.499-.456-.491-.832.017-.663.595-1.205 1.214-1.144.21.021.312.142.278.351-.019.112-.059.221-.097.331-.151.436 0 .612.453.536a2.1 2.1 0 0 1 .821.009c.688.159 1.004.676.85 1.368-.151.675-.516 1.248-.875 1.823-.335.537-.71 1.051-.999 1.617-.122.239-.233.485-.233.762.001.392.308.591.667.43.291-.131.525-.342.75-.562.612-.598 1.148-1.26 1.657-1.947.484-.653.926-1.339 1.531-1.896.738-.677 1.524-1.276 2.52-1.523.449-.112.899-.115 1.342.042.635.225.912.791.685 1.427-.226.636-.683 1.077-1.254 1.405-.724.417-1.515.572-2.344.53a.86.86 0 0 1-.61-.285c-.069-.077-.112-.167-.075-.264.041-.109.148-.075.235-.074.314.008.623.058.94.011.872-.126 1.523-.569 1.958-1.326.132-.228.238-.493.029-.734-.218-.254-.516-.222-.801-.149-.527.134-.941.464-1.313.837-.739.738-1.311 1.589-1.614 2.601-.105.354-.152.714-.061 1.08.11.45.452.73.913.77.693.06 1.312-.172 1.906-.489.892-.473 1.619-1.145 2.253-1.922.065-.079.129-.16.198-.236.085-.094.194-.145.309-.071.126.079.115.209.058.324a3.883 3.883 0 0 1-.448.671c-.895 1.158-1.958 2.113-3.296 2.736-.626.291-1.283.464-1.976.348-1.171-.195-1.709-1.17-1.579-2.273-.091.043-.132.12-.187.183-.541.627-1.103 1.236-1.806 1.691-.301.195-.619.361-.991.384-.675.044-1.084-.313-1.119-.993-.03-.592.16-1.134.401-1.663.339-.741.796-1.416 1.215-2.112.195-.323.389-.648.513-1.007.188-.545.076-.68-.497-.675-.22.003-.337.079-.443.268-.839 1.494-1.776 2.923-2.877 4.238-.574.683-1.184 1.336-1.995 1.754a1.61 1.61 0 0 1-.87.191c-.529-.041-.871-.381-.897-.915a1.76 1.76 0 0 1 .017-.441c.03-.139.067-.28.111-.47"/><path clip-path="url(#b)" fill="#CAB894" d="M16.176.446c-.831 0-1.505.673-1.505 1.504v17.181a5.336 5.336 0 0 1-5.331 5.33 5.337 5.337 0 0 1-5.33-5.33 1.505 1.505 0 1 0-3.01 0c0 4.599 3.741 8.34 8.34 8.34s8.341-3.741 8.341-8.34V1.95c0-.831-.673-1.504-1.505-1.504M76.188.302c-.831 0-1.505.674-1.505 1.505v24.16a1.504 1.504 0 1 0 3.009 0V1.807c0-.831-.673-1.505-1.504-1.505m-8.94 0c-.831 0-1.505.674-1.505 1.505v19.405L51.484.941l-.029-.038c-.017-.022-.035-.047-.054-.068L51.352.78a.81.81 0 0 0-.049-.052l-.061-.055-.048-.041-.066-.05c-.017-.012-.035-.025-.053-.036l-.066-.04c-.02-.013-.041-.024-.062-.035-.02-.011-.041-.02-.062-.03l-.073-.032-.059-.021c-.026-.009-.052-.019-.08-.026l-.06-.015a1.203 1.203 0 0 0-.082-.018c-.023-.005-.046-.008-.069-.011l-.074-.009-.086-.004c-.016 0-.032-.003-.049-.003l-.012.001c-.033 0-.064.003-.097.005l-.052.003a.994.994 0 0 0-.093.014l-.055.01a.762.762 0 0 0-.079.02.691.691 0 0 0-.065.018c-.021.006-.041.015-.061.023a.839.839 0 0 0-.079.029c-.016.006-.032.015-.048.022a1.133 1.133 0 0 0-.085.044l-.044.026c-.028.018-.057.034-.083.052l-.011.007-.038.03-.069.052a.874.874 0 0 0-.055.051l-.05.049c-.019.019-.038.041-.057.062-.013.016-.027.03-.039.046-.018.022-.035.046-.052.069a1.142 1.142 0 0 0-.109.18c-.011.022-.022.044-.031.066a.846.846 0 0 0-.03.069l-.023.062-.025.077-.016.063c-.006.027-.013.052-.017.079-.005.024-.008.048-.011.072a.86.86 0 0 0-.009.071c-.003.03-.003.06-.004.09l-.002.046v24.16a1.504 1.504 0 1 0 3.009 0V6.562L66.02 26.833l.02.024c.025.034.051.067.079.099.013.016.027.03.041.045.025.027.051.052.079.077l.044.04c.041.034.082.067.127.096l.03.019c.037.023.075.046.114.066l.047.023c.035.016.071.033.107.046l.049.018c.038.013.076.025.115.035l.045.012c.042.009.085.016.127.022l.039.006c.054.007.11.011.166.011h.008c.065-.001.129-.007.192-.015l.052-.008a1.43 1.43 0 0 0 .389-.122l.038-.018c.062-.032.122-.066.179-.106l.008-.005.038-.029.068-.053c.019-.016.037-.034.055-.051.017-.016.034-.03.05-.047l.057-.063.039-.046c.018-.022.035-.046.052-.069l.035-.051c.014-.022.028-.044.041-.068l.033-.06a.649.649 0 0 0 .031-.065l.031-.07.022-.062a1.387 1.387 0 0 0 .06-.219l.011-.072.009-.071c.003-.03.004-.06.005-.089l.002-.046V1.807A1.507 1.507 0 0 0 67.248.302M41.753.446h-.008a1.505 1.505 0 0 0-1.497 1.512c.002.44.004 15.84.004 15.996 0 4.074-3.539 6.508-6.96 6.508-3.507 0-7.136-2.457-7.136-6.57V1.807a1.505 1.505 0 0 0-3.009 0v16.085c0 2.694 1.121 5.17 3.156 6.969 1.876 1.659 4.424 2.61 6.989 2.61 4.901 0 9.969-3.56 9.969-9.518 0-.153-.001-15.555-.003-16.011A1.505 1.505 0 0 0 41.753.446m86.902 24.562l-6.169-7.471c3.4-1.128 6.028-4.629 6.028-8.524 0-4.659-3.784-8.634-8.28-8.68h-7.505c-.073 0-.144.007-.214.017a1.504 1.504 0 0 0-1.721 1.487v24.129a1.505 1.505 0 1 0 3.009 0v-8.047h5.095l7.436 9.005a1.505 1.505 0 1 0 2.321-1.916M113.804 3.342h6.416c2.816.029 5.286 2.679 5.286 5.671 0 3.086-2.541 5.897-5.331 5.897h-6.37V3.342zM94.367.783c-6.559 0-11.895 5.986-11.895 13.343 0 7.358 5.336 13.345 11.895 13.345 6.559 0 11.895-5.987 11.895-13.345 0-7.357-5.337-13.343-11.895-13.343m0 23.678c-4.899 0-8.886-4.636-8.886-10.335 0-5.698 3.987-10.333 8.886-10.333 4.899 0 8.885 4.635 8.885 10.333-.001 5.699-3.986 10.335-8.885 10.335"/></g></svg>