<svg data-name="Слой 1" xmlns="http://www.w3.org/2000/svg" width="16" height="16" viewBox="0 0 16 16"><title>settings</title><path d="M8 11.01a3 3 0 1 1 3-3 3 3 0 0 1-3 3zm8-2v-2h-1.61a6.53 6.53 0 0 0-1-2.65l1-1.11-1.6-1.64-1.17 1A6.51 6.51 0 0 0 9 1.4V0H7v1.35a6.5 6.5 0 0 0-2.67 1l-1.09-1-1.63 1.67 1 1.37A6.55 6.55 0 0 0 1.5 7H0v2h1.44a6.54 6.54 0 0 0 1 2.6l-1.07 1 1.65 1.6 1.48-1.05A6.53 6.53 0 0 0 7 14.26V16h2v-1.5a6.83 6.83 0 0 0 2.58-1.17l1 1.09 1.63-1.63-1-1.25A6.53 6.53 0 0 0 14.32 9z"/></svg>