<?xml version="1.0" standalone="no"?>
<!DOCTYPE svg PUBLIC "-//W3C//DTD SVG 20010904//EN"
 "http://www.w3.org/TR/2001/REC-SVG-20010904/DTD/svg10.dtd">
<svg version="1.0" xmlns="http://www.w3.org/2000/svg"
 width="700.000000pt" height="700.000000pt" viewBox="0 0 700.000000 700.000000"
 preserveAspectRatio="xMidYMid meet">
<metadata>
Created by potrace 1.11, written by Peter Selinger 2001-2013
</metadata>
<g transform="translate(0.000000,700.000000) scale(0.100000,-0.100000)"
fill="#000000" stroke="none">
<path d="M3278 6995 c-2 -2 -32 -5 -68 -9 -36 -3 -90 -9 -120 -12 -267 -27
-690 -137 -935 -244 -11 -5 -42 -19 -70 -31 -270 -116 -578 -308 -825 -512
-110 -92 -346 -327 -442 -442 -279 -333 -512 -754 -642 -1162 -33 -104 -54
-177 -62 -217 -2 -10 -10 -42 -18 -70 -17 -62 -54 -269 -62 -351 -3 -33 -8
-67 -10 -75 -9 -27 -18 -225 -17 -385 0 -173 12 -350 28 -435 2 -14 7 -45 10
-70 5 -40 10 -70 30 -170 3 -14 8 -38 11 -55 3 -16 14 -64 25 -105 11 -41 25
-93 30 -115 5 -22 14 -51 19 -65 5 -14 28 -79 51 -145 23 -66 54 -148 70 -182
16 -35 29 -66 29 -69 0 -12 126 -255 178 -344 178 -304 464 -648 717 -861 22
-19 45 -39 50 -45 20 -22 191 -151 285 -214 323 -217 678 -380 1045 -479 112
-30 324 -75 405 -85 25 -3 54 -8 66 -10 104 -20 626 -30 764 -13 36 4 88 10
115 13 28 3 97 14 155 24 58 11 116 21 130 24 14 2 80 18 148 35 453 115 884
325 1270 619 31 24 59 47 62 50 3 4 30 27 60 51 92 74 268 248 376 371 108
122 275 346 273 366 0 5 -33 30 -72 56 -68 43 -402 263 -864 567 l-202 133 35
54 c124 194 251 520 279 720 3 21 8 50 11 64 2 14 6 35 8 47 10 49 19 204 18
301 -2 366 -114 767 -298 1067 -20 33 -42 70 -49 82 -11 22 -26 13 -496 -302
-266 -178 -488 -328 -494 -332 -5 -5 -145 -98 -310 -208 -165 -110 -302 -202
-305 -205 -3 -3 -42 -30 -87 -60 -46 -29 -83 -55 -83 -57 0 -2 37 -27 83 -56
45 -30 222 -146 392 -259 171 -112 409 -270 530 -350 121 -79 340 -224 488
-321 147 -97 267 -182 267 -187 0 -15 -69 -108 -156 -210 -241 -285 -582 -514
-939 -632 -103 -34 -267 -74 -340 -83 -27 -4 -77 -10 -110 -15 -59 -8 -426 -6
-475 3 -14 2 -59 10 -100 16 -555 92 -1065 417 -1393 888 -31 45 -57 84 -57
87 0 2 -17 33 -38 67 -81 134 -187 397 -217 538 -2 9 -10 48 -19 87 -8 38 -18
92 -21 120 -4 27 -10 76 -14 108 -9 66 -7 371 2 426 4 19 9 55 12 80 4 38 38
202 49 235 1 6 8 30 15 55 25 93 75 219 134 340 58 119 188 326 252 399 75 87
155 171 210 221 33 30 62 57 65 61 3 3 23 18 45 35 22 16 47 35 55 43 8 8 58
42 110 76 244 159 496 260 780 315 211 40 487 44 710 10 114 -18 340 -75 395
-100 11 -5 43 -18 71 -29 289 -111 603 -336 814 -582 30 -35 57 -66 60 -69 4
-3 26 -33 50 -68 l43 -62 29 17 c36 23 471 316 478 323 3 3 13 10 22 15 62 35
608 408 608 415 0 9 -167 233 -215 290 -42 48 -175 190 -205 218 -14 13 -52
49 -85 81 -278 265 -670 516 -1060 679 -159 67 -449 160 -563 182 -30 5 -57
12 -60 14 -9 5 -247 45 -309 51 -26 3 -68 8 -93 11 -42 6 -517 14 -522 9z"/>
</g>
</svg>
