<svg xmlns="http://www.w3.org/2000/svg" viewBox="0 0 32 26"><path fill="#CAB894" d="M19.39 11.607a.727.727 0 0 0-.256.047 1.97 1.97 0 0 0-.197.099l-2.875 1.802-2.874-1.802s-.131-.074-.197-.099a.728.728 0 0 0-.984.681l.001.009v4.16l.004.06a.726.726 0 0 0 .983.628c.044-.017.132-.058.132-.058l2.935-1.84 2.936 1.84s.088.042.132.058a.725.725 0 0 0 .983-.628l.004-.06v-4.16l.002-.009a.729.729 0 0 0-.729-.728"/><path fill="#CAB894" d="M15.825 12.803V1.487a.909.909 0 0 0-1.817 0v10.177l1.817 1.139zm2.345-1.172V8.196a5.807 5.807 0 0 1 5.801-5.801 5.807 5.807 0 0 1 5.801 5.801.909.909 0 0 0 1.817 0c0-4.201-3.417-7.618-7.618-7.618-4.2 0-7.617 3.417-7.617 7.618v4.573l1.816-1.138zm12.511 5.264a.908.908 0 0 0-.908.908 5.807 5.807 0 0 1-5.801 5.801 5.808 5.808 0 0 1-5.801-5.801v-.583l-1.817-1.139v1.723c0 4.201 3.417 7.619 7.617 7.619 4.201 0 7.618-3.418 7.618-7.619a.908.908 0 0 0-.908-.909m-16.673.291v.617a5.808 5.808 0 0 1-5.801 5.801 5.808 5.808 0 0 1-5.801-5.801.909.909 0 0 0-1.817 0c0 4.2 3.417 7.618 7.618 7.618s7.618-3.418 7.618-7.618v-1.756l-1.817 1.139z"/></svg>