<svg id="Слой_1" data-name="Слой 1" xmlns="http://www.w3.org/2000/svg" width="20" height="18" viewBox="0 0 20 18"><title>add-auto</title><path d="M19.5,18.5h-1a1,1,0,0,1-1-1v-1H7.5v1a1,1,0,0,1-1,1h-1a1,1,0,0,1-1-1V13.35a7.53,7.53,0,0,0,1.1.13,1.48,1.48,0,0,0,2.89-.41A7.51,7.51,0,0,0,12.63,9.5H19.5l-1.75-4H13.47a7.57,7.57,0,0,0-.13-1H18.5l2,5h0v8A1,1,0,0,1,19.5,18.5Zm-1.5-7A1.5,1.5,0,1,0,19.5,13,1.5,1.5,0,0,0,18,11.5Zm-12,0A5.5,5.5,0,1,1,11.5,6,5.5,5.5,0,0,1,6,11.5Zm3.5-6h-3v-3h-1v3h-3v1h3v3h1v-3h3Z" transform="translate(-0.5 -0.5)"/></svg>