<svg id="Слой_1" data-name="Слой 1" xmlns="http://www.w3.org/2000/svg" width="18" height="18" viewBox="0 0 18 18"><title>dashboard</title><path d="M17.5.5h-1a1,1,0,0,0-1,1v16a1,1,0,0,0,1,1h1a1,1,0,0,0,1-1V1.5A1,1,0,0,0,17.5.5Zm-5,6h-1a1,1,0,0,0-1,1v10a1,1,0,0,0,1,1h1a1,1,0,0,0,1-1V7.5A1,1,0,0,0,12.5,6.5Zm-5-2h-1a1,1,0,0,0-1,1v12a1,1,0,0,0,1,1h1a1,1,0,0,0,1-1V5.5A1,1,0,0,0,7.5,4.5Zm-5,9h-1a1,1,0,0,0-1,1v3a1,1,0,0,0,1,1h1a1,1,0,0,0,1-1v-3A1,1,0,0,0,2.5,13.5Z" transform="translate(-0.5 -0.5)"/></svg>