<svg id="Слой_1" data-name="Слой 1" xmlns="http://www.w3.org/2000/svg" width="11" height="14" viewBox="0 0 11 14"><title>radius</title><path d="M8,.5A5.56,5.56,0,0,0,2.5,6.13C2.5,9.23,8,14.5,8,14.5s5.5-5.27,5.5-8.37A5.56,5.56,0,0,0,8,.5ZM8,13.09c-2-2-4.5-5.22-4.5-7A4.57,4.57,0,0,1,8,1.5a4.57,4.57,0,0,1,4.5,4.63C12.5,7.86,10,11.05,8,13.09Z" transform="translate(-2.5 -0.5)"/><path d="M8,3.5A2.5,2.5,0,1,0,10.5,6,2.5,2.5,0,0,0,8,3.5Zm0,4A1.5,1.5,0,1,1,9.5,6,1.5,1.5,0,0,1,8,7.5Z" transform="translate(-2.5 -0.5)"/></svg>