<svg id="Слой_1" data-name="Слой 1" xmlns="http://www.w3.org/2000/svg" width="16" height="16" viewBox="0 0 16 16"><title>settings</title><path d="M8.5,11.51a3,3,0,1,1,3-3A3,3,0,0,1,8.5,11.51Zm8-2v-2H14.89a6.53,6.53,0,0,0-1-2.65l1-1.11L13.29,2.11l-1.17,1A6.51,6.51,0,0,0,9.5,1.9V.5h-2V1.85a6.5,6.5,0,0,0-2.67,1l-1.09-1L2.11,3.52l1,1.37A6.55,6.55,0,0,0,2,7.5H.5v2H1.94a6.54,6.54,0,0,0,1,2.6l-1.07,1L3.52,14.7,5,13.65A6.53,6.53,0,0,0,7.5,14.76V16.5h2V15a6.83,6.83,0,0,0,2.58-1.17l1,1.09,1.63-1.63-1-1.25A6.53,6.53,0,0,0,14.82,9.5Z" transform="translate(-0.5 -0.5)"/></svg>