<svg id="Слой_1" data-name="Слой 1" xmlns="http://www.w3.org/2000/svg" width="20" height="18" viewBox="0 0 20 18"><title>stock</title><path d="M19.5,18.5h-1a1,1,0,0,1-1-1v-1H7.5v1a1,1,0,0,1-1,1h-1a1,1,0,0,1-1-1v-7h0v-1h0l2-5h12l2,5h0v8A1,1,0,0,1,19.5,18.5ZM7,14.5A1.5,1.5,0,1,0,5.5,13,1.5,1.5,0,0,0,7,14.5Zm10.75-9H7.25L5.5,9.5h14Zm.25,6A1.5,1.5,0,1,0,19.5,13,1.5,1.5,0,0,0,18,11.5Zm-4.25-10H3.25L1.5,5.5H4.83L4,7.92A1.5,1.5,0,1,0,3,10.5a1.47,1.47,0,0,0,.5-.1v2.1h0v1a1,1,0,0,1-1,1h-1a1,1,0,0,1-1-1v-7h0v-1h0l2-5h12l1,3h-1Z" transform="translate(-0.5 -0.5)"/></svg>